HIERARCHY
ROOT Hips
{
	OFFSET -3.958830 18.904000 13.208200
	CHANNELS 6 Xposition Yposition Zposition Zrotation Yrotation Xrotation 
	JOINT LHipJoint
	{
		OFFSET 0.000000 0.000000 0.000000
		CHANNELS 3 Zrotation Yrotation Xrotation
		JOINT LeftUpLeg
		{
			OFFSET 1.800000 -1.400000 0.085000
			CHANNELS 3 Zrotation Yrotation Xrotation
			JOINT LeftLeg
			{
				OFFSET 2.215000 -6.000000 0.000000
				CHANNELS 3 Zrotation Yrotation Xrotation
				JOINT LeftFoot
				{
					OFFSET 2.500000 -6.900000 0.000000
					CHANNELS 3 Zrotation Yrotation Xrotation
					JOINT LeftToeBase
					{
						OFFSET 0.200000 -0.500000 1.950000
						CHANNELS 3 Zrotation Yrotation Xrotation
						End Site
						{
							OFFSET 0.000000 0.000000 0.000000
						}
					}
				}
			}
		}
	}
	JOINT RHipJoint
	{
		OFFSET 0.000000 0.000000 0.000000
		CHANNELS 3 Zrotation Yrotation Xrotation
		JOINT RightUpLeg
		{
			OFFSET -1.800000 -1.400000 0.085000
			CHANNELS 3 Zrotation Yrotation Xrotation
			JOINT RightLeg
			{
				OFFSET -2.215000 -6.000000 0.000000
				CHANNELS 3 Zrotation Yrotation Xrotation
				JOINT RightFoot
				{
					OFFSET -2.500000 -6.900000 0.000000
					CHANNELS 3 Zrotation Yrotation Xrotation
					JOINT RightToeBase
					{
						OFFSET -0.200000 -0.500000 1.950000
						CHANNELS 3 Zrotation Yrotation Xrotation
						End Site
						{
							OFFSET 0.000000 0.000000 0.000000
						}
					}
				}
			}
		}
	}
	JOINT LowerBack
	{
		OFFSET 0.000000 0.000000 0.000000
		CHANNELS 3 Zrotation Yrotation Xrotation
		JOINT Spine
		{
			OFFSET -0.087000 1.940000 -0.288900
			CHANNELS 3 Zrotation Yrotation Xrotation
			JOINT Spine1
			{
				OFFSET 0.000000 1.950000 0.060000
				CHANNELS 3 Zrotation Yrotation Xrotation
				JOINT Neck
				{
					OFFSET 0.000000 0.000000 0.000000
					CHANNELS 3 Zrotation Yrotation Xrotation
					JOINT Neck1
					{
						OFFSET 0.000000 1.600000 0.340000
						CHANNELS 3 Zrotation Yrotation Xrotation
						JOINT Head
						{
							OFFSET 0.000000 1.667000 -0.240000
							CHANNELS 3 Zrotation Yrotation Xrotation
							End Site
							{
								OFFSET 0.000000 0.000000 0.000000
							}
						}
					}
				}
				JOINT LeftShoulder
				{
					OFFSET 0.000000 0.000000 0.000000
					CHANNELS 3 Zrotation Yrotation Xrotation
					JOINT LeftArm
					{
						OFFSET 2.700000 1.550000 -0.730000
						CHANNELS 3 Zrotation Yrotation Xrotation
						JOINT LeftForeArm
						{
							OFFSET 5.450000 0.000000 0.000000
							CHANNELS 3 Zrotation Yrotation Xrotation
							JOINT LeftHand
							{
								OFFSET 3.450000 0.000000 0.000000
								CHANNELS 3 Zrotation Yrotation Xrotation
								JOINT LeftHandIndex1
								{
									OFFSET 0.750000 0.000000 0.000000
									CHANNELS 3 Zrotation Yrotation Xrotation
									End Site
									{
										OFFSET 0.000000 0.000000 0.000000
									}
								}
							}
						}
					}
				}
				JOINT RightShoulder
				{
					OFFSET 0.000000 0.000000 0.000000
					CHANNELS 3 Zrotation Yrotation Xrotation
					JOINT RightArm
					{
						OFFSET -2.700000 1.550000 -0.730000
						CHANNELS 3 Zrotation Yrotation Xrotation
						JOINT RightForeArm
						{
							OFFSET -5.450000 0.000000 0.000000
							CHANNELS 3 Zrotation Yrotation Xrotation
							JOINT RightHand
							{
								OFFSET -3.450000 0.000000 0.000000
								CHANNELS 3 Zrotation Yrotation Xrotation
								JOINT RightHandIndex1
								{
									OFFSET -0.750000 0.000000 0.000000
									CHANNELS 3 Zrotation Yrotation Xrotation
									End Site
									{
										OFFSET 0.000000 0.000000 0.000000
									}
								}
							}
						}
					}
				}
			}
		}
	}
}
MOTION
Frames: 10
Frame Time: 0.016667
0.152080 17.680680 -3.390680 -7.387662 -35.026689 13.664705 -15.531169 12.364485 3.947816 1.243987 -6.110387 -33.262638 -12.708899 9.080001 24.627773 -1.003095 5.839787 2.727832 0.623200 0.209330 0.295460 18.196562 -10.099452 2.479331 5.223268 -0.370071 -1.427799 4.449681 -6.061799 22.191540 -0.460793 -5.151972 2.984328 0.475380 0.850180 0.192120 -2.900125 -2.416089 -6.729773 -3.543235 4.410771 4.314880 0.747078 4.410651 2.572482 -1.390135 -7.416835 -1.800561 -13.375381 13.811344 20.725610 -1.484100 7.050410 -7.228340 -12.339589 14.800703 -4.213008 -38.861637 -4.605136 -4.311362 13.723323 -35.393133 -5.144643 -4.273317 2.860133 0.448920 0.615420 -0.520300 0.393820 14.628407 -7.831693 0.703028 23.945958 -8.820453 -6.661548 -112.560496 45.523685 -63.920439 1.242011 -1.676545 -0.566470 0.624940 0.097370 -0.324180 
0.161420 17.667370 -3.400110 -7.096739 -35.796160 13.522010 -15.553256 12.245624 4.077904 1.657658 -6.427242 -34.710746 -13.154483 9.820005 26.687017 -0.919326 6.265858 2.582911 0.604510 0.205070 0.275570 18.194496 -10.061358 2.445297 5.061408 -0.434815 -1.169060 4.437440 -6.015127 21.657617 -0.444948 -5.140202 3.010071 0.476110 0.881960 0.185480 -2.902257 -2.358549 -6.772361 -3.890068 4.574552 4.283718 0.583516 4.595492 2.627155 -1.320046 -7.400362 -1.874144 -13.260227 13.957880 20.581837 -1.836580 7.254900 -6.687070 -12.212980 14.741755 -4.175042 -38.283873 -4.637947 -4.084138 13.804832 -36.019185 -5.096970 -4.295243 2.854029 0.422180 0.644330 -0.536130 0.405220 14.368907 -7.684669 0.785907 23.152337 -8.005206 -6.083792 -113.158582 45.951250 -65.227228 1.237454 -1.663537 -0.574980 0.644130 0.097800 -0.312270 
0.178600 17.636030 -3.420140 -6.371147 -37.215948 13.014295 -15.609266 11.988734 4.359507 2.611875 -7.045560 -37.642439 -13.979713 11.416251 30.958282 -0.747446 7.176613 2.238506 0.644100 0.270890 0.292760 18.186340 -9.964334 2.363966 4.668836 -0.565486 -0.426845 4.296429 -5.896431 20.707523 -0.450648 -5.126171 3.024124 0.512820 0.873940 0.186410 -2.899976 -2.265444 -6.861089 -4.760866 5.110474 4.150080 0.288979 5.152251 3.373301 -1.203139 -7.362166 -2.199618 -13.047839 13.954051 20.304560 -2.135430 7.221010 -6.830150 -12.085014 14.003476 -3.945823 -37.093766 -4.739937 -3.878613 14.158396 -37.663244 -5.249535 -4.280414 2.888653 0.394990 0.654620 -0.529740 0.420820 13.985469 -6.769759 1.086353 21.400117 -7.443114 -5.662447 -114.023644 45.909311 -66.731539 1.233247 -1.703683 -0.553930 0.644380 0.069620 -0.302610 
0.205180 17.594260 -3.438020 -6.316296 -38.595754 12.760191 -15.655521 11.646183 4.700917 4.295897 -7.520465 -41.132697 -14.650368 13.261764 35.689416 -0.500380 8.237890 1.862697 0.707220 0.366330 0.313600 18.198314 -9.872936 2.294656 4.532933 -0.797241 0.667463 3.868617 -5.727820 19.919268 -0.483248 -5.138064 3.039495 0.553270 0.860400 0.176040 -2.970917 -2.040411 -7.017593 -4.450922 5.587888 4.406719 -0.486674 5.764992 3.874115 -0.986424 -7.554390 -2.602780 -13.310689 14.205589 20.281177 -1.677560 7.106990 -6.722400 -12.418420 13.011014 -3.783151 -35.370848 -4.961008 -3.563236 14.311776 -39.053906 -5.260147 -4.223568 2.937320 0.363560 0.642570 -0.510110 0.466100 13.799794 -5.566936 1.514219 18.064309 -7.576520 -5.151017 -115.065452 46.351310 -68.967378 1.264818 -1.739027 -0.518380 0.645870 0.006240 -0.272600 
0.230470 17.556920 -3.453510 -6.100546 -40.142621 11.944959 -15.714928 11.425774 4.998662 5.893560 -7.732528 -43.798061 -14.992029 14.870860 39.671662 -0.302745 9.162940 1.525768 0.729660 0.403160 0.324700 18.176525 -9.780446 2.234005 3.780148 -1.058509 2.279009 3.604353 -5.672458 18.799662 -0.524599 -5.146753 3.044630 0.557350 0.821140 0.160620 -2.942517 -1.996471 -7.205674 -4.534702 5.909604 5.329435 -0.992426 6.308063 4.195671 -0.777206 -8.082719 -3.170554 -14.403819 14.405117 20.775048 -1.529370 6.905780 -7.562500 -13.147607 11.718342 -3.491668 -33.559116 -4.547431 -3.481429 14.889864 -40.549842 -5.488203 -4.158626 2.930150 0.384940 0.600860 -0.474190 0.471340 14.041961 -3.773471 2.012497 13.417480 -7.643177 -4.656398 -116.667306 47.251107 -72.300991 1.306769 -1.697470 -0.500330 0.653450 -0.011400 -0.267720 
0.251460 17.536030 -3.472600 -6.102920 -41.376441 11.147448 -15.749452 11.310418 5.189698 7.155163 -7.718283 -45.472595 -14.748700 15.711915 42.181314 -0.215112 9.713747 1.312766 0.752160 0.398310 0.355250 18.158653 -9.726101 2.213985 3.103540 -1.248699 3.697807 3.517766 -5.717542 18.004327 -0.571940 -5.183596 3.020451 0.542300 0.773660 0.170760 -2.918856 -1.996695 -7.371781 -4.280313 5.984122 6.468206 -1.699168 6.659329 4.454612 -0.520066 -8.632510 -3.769683 -15.683382 14.715423 21.528304 -1.304920 6.728840 -8.451720 -14.044538 10.243881 -3.224337 -31.767796 -4.293393 -3.328025 14.617392 -41.496333 -5.460765 -4.099587 2.931084 0.440770 0.552920 -0.438630 0.460340 14.353978 -1.900622 2.500485 9.181282 -7.528974 -4.224145 -118.864128 48.194989 -76.432202 1.344450 -1.668080 -0.489760 0.636980 -0.012720 -0.286290 
0.262560 17.530080 -3.480680 -6.284808 -42.159728 10.601250 -15.730386 11.317897 5.190386 7.541887 -7.478008 -45.791116 -13.672093 15.312962 42.497254 -0.319572 9.628449 1.304838 0.787520 0.415800 0.409300 18.166403 -9.756344 2.255391 2.591222 -1.411737 4.820121 3.705322 -5.804013 17.244651 -0.620117 -5.203287 2.987931 0.562590 0.722680 0.148010 -2.963604 -1.955973 -7.442953 -3.662925 5.744036 7.394601 -2.657045 6.720408 4.693435 -0.356376 -9.252874 -4.173755 -17.013929 15.029970 21.698537 -0.955370 6.375870 -10.461430 -15.000266 8.942769 -2.894217 -30.208891 -3.281203 -3.512621 15.439953 -42.676656 -5.927283 -4.036707 2.876318 0.520430 0.491690 -0.402330 0.435750 14.885420 -0.193928 2.682536 4.944216 -6.642092 -3.732395 -120.384689 49.354504 -79.778927 1.364407 -1.594150 -0.513660 0.668540 -0.010000 -0.320620 
0.264450 17.526480 -3.492960 -6.430805 -42.572045 10.482694 -15.710438 11.353137 5.156920 7.491974 -7.276449 -46.164370 -12.174815 14.411138 41.953599 -0.413745 9.276375 1.436780 0.787820 0.432220 0.407500 18.177280 -9.785592 2.298920 2.689461 -1.535159 5.169868 3.537715 -5.733573 16.946972 -0.629880 -5.180263 3.012114 0.576970 0.736330 0.103960 -3.004095 -1.943008 -7.457534 -3.322493 5.444482 7.725694 -3.368127 6.623751 4.980358 -0.176932 -9.634413 -4.673500 -17.790860 15.394803 21.390779 -0.485920 6.232690 -10.974900 -15.406018 7.809607 -2.340797 -29.587698 -2.007455 -3.887970 16.618791 -43.980478 -6.554380 -3.995934 2.815102 0.534400 0.474040 -0.398170 0.451710 14.978929 1.208961 2.909673 1.777677 -6.122511 -3.247159 -122.716506 50.328301 -84.310187 1.397791 -1.573257 -0.541690 0.728260 -0.022820 -0.311560 
0.259210 17.531570 -3.497430 -6.661488 -42.515304 10.463570 -15.655071 11.553460 4.954519 6.564736 -6.927014 -45.245246 -9.997382 12.442103 39.018538 -0.660333 8.306191 1.774612 0.767850 0.398270 0.401420 18.190464 -9.878484 2.400066 3.161593 -1.648909 5.233151 3.274247 -5.666605 17.098723 -0.621134 -5.150240 3.041801 0.571390 0.744890 0.054310 -3.022950 -1.998426 -7.404030 -3.110202 5.105943 8.066968 -3.744689 6.382030 4.963548 0.002269 -9.926330 -5.127240 -18.410760 15.853483 21.082866 0.228500 6.138070 -11.558810 -15.188398 7.416810 -1.875045 -30.299732 -0.640491 -4.495192 18.004433 -45.530316 -7.430271 -3.957514 2.742144 0.578400 0.451060 -0.411500 0.445720 14.514307 1.824048 3.098868 0.691478 -5.940264 -3.031556 -126.845519 50.091091 -90.143508 1.416518 -1.629653 -0.593570 0.779610 -0.009820 -0.329460 
0.250520 17.554820 -3.503850 -6.843502 -42.285365 10.621808 -15.595994 11.821056 4.709971 5.452167 -6.450880 -43.774355 -8.242597 10.410901 34.505687 -0.867563 7.091802 2.218777 0.731820 0.354530 0.359640 18.193179 -9.994657 2.492512 3.827213 -1.593629 4.495153 2.950790 -5.584571 18.097464 -0.591150 -5.121825 3.063632 0.541950 0.761760 0.031240 -2.995668 -2.093257 -7.325719 -3.392109 4.850439 8.356846 -3.728494 6.070425 4.423448 0.227408 -10.048010 -5.490865 -18.628136 16.320669 20.683859 1.060520 6.162310 -10.858790 -14.983777 7.503744 -1.525100 -31.817751 0.565992 -5.187959 20.703315 -46.882926 -8.742902 -3.926160 2.726410 0.578890 0.442950 -0.435500 0.450330 14.058485 1.912405 3.283706 1.066764 -6.017372 -2.841120 -132.214301 49.016054 -97.025141 1.446001 -1.769410 -0.609580 0.776920 -0.000370 -0.321120 
